<?xml version="1.0" standalone="no"?>
<!DOCTYPE svg PUBLIC "-//W3C//DTD SVG 20010904//EN"
 "http://www.w3.org/TR/2001/REC-SVG-20010904/DTD/svg10.dtd">
<svg version="1.0" xmlns="http://www.w3.org/2000/svg"
 width="92.000000pt" height="92.000000pt" viewBox="0 0 92.000000 92.000000"
 preserveAspectRatio="xMidYMid meet">
<metadata>
Created by potrace 1.13, written by Peter Selinger 2001-2015
</metadata>
<g transform="translate(0.000000,92.000000) scale(0.100000,-0.100000)"
fill="#FFFFFF" stroke="none">
<path d="M362 825 c-64 -18 -95 -34 -147 -75 -165 -132 -202 -368 -85 -550 31
-48 115 -128 125 -118 3 2 -29 102 -70 221 -90 260 -92 273 -34 302 64 34 105
8 138 -86 42 -118 39 -114 60 -95 13 12 32 16 58 14 29 -2 42 2 56 19 9 12 31
24 47 28 17 4 30 10 30 13 0 4 -12 42 -26 85 -28 84 -27 114 6 147 28 28 84
26 113 -2 13 -13 44 -83 70 -158 47 -134 48 -136 89 -155 35 -17 45 -28 57
-65 12 -37 15 -41 22 -25 13 34 10 169 -6 221 -21 71 -85 165 -140 207 -96 74
-249 104 -363 72z"/>
<path d="M543 708 c-22 -28 -18 -50 43 -227 35 -101 64 -197 64 -213 0 -18
-10 -39 -26 -54 -20 -21 -32 -25 -62 -22 -29 4 -42 0 -59 -19 -28 -29 -92 -32
-116 -5 -9 10 -46 103 -82 208 -62 178 -81 214 -112 214 -14 0 -53 -35 -53
-48 0 -5 25 -80 56 -168 30 -87 68 -194 82 -238 17 -48 35 -84 48 -93 30 -19
146 -31 212 -21 113 18 221 89 283 187 l28 43 -21 57 c-11 31 -25 62 -31 69
-15 18 -52 14 -72 -8 -18 -20 -18 -23 5 -93 13 -39 25 -78 28 -84 2 -7 -3 -13
-11 -13 -10 0 -24 22 -37 58 -34 89 -36 119 -11 152 l21 29 -46 133 c-26 73
-53 141 -62 151 -18 20 -55 23 -69 5z"/>
<path d="M507 449 c-36 -21 -38 -44 -11 -121 33 -93 53 -116 91 -102 38 13 40
43 6 138 -29 82 -51 104 -86 85z"/>
<path d="M366 394 c-22 -22 -19 -58 13 -139 26 -67 28 -70 60 -70 57 0 64 26
34 115 -37 107 -68 134 -107 94z"/>
</g>
</svg>
